<?xml version="1.0" encoding="UTF-8" standalone="no"?>
<!DOCTYPE svg PUBLIC "-//W3C//DTD SVG 1.1//EN" "http://www.w3.org/Graphics/SVG/1.1/DTD/svg11.dtd">
<svg width="100%" height="100%" viewBox="0 0 49 49" version="1.1" xmlns="http://www.w3.org/2000/svg" xmlns:xlink="http://www.w3.org/1999/xlink" xml:space="preserve" xmlns:serif="http://www.serif.com/" style="fill-rule:evenodd;clip-rule:evenodd;stroke-linejoin:round;stroke-miterlimit:2;">
    <g transform="matrix(1,0,0,1,-7.89453,-7.90976)">
        <path d="M35.726,10.424C35.69,10.396 35.638,10.379 35.564,10.379L35.37,10.379C34.656,10.27 33.936,10.196 33.215,10.157C33.095,10.151 32.979,10.198 32.898,10.287C29.203,14.323 27.151,19.602 27.151,25.075C27.151,36.601 36.251,46.255 47.758,46.936C47.875,46.943 47.99,46.898 48.072,46.812C48.581,46.275 49.063,45.712 49.516,45.125C49.518,45.122 49.521,45.119 49.523,45.116C49.73,44.83 50.062,44.661 50.414,44.661C51.017,44.661 51.514,45.157 51.514,45.761C51.514,46.005 51.433,46.242 51.283,46.435C51.282,46.436 51.281,46.438 51.28,46.439C50.695,47.216 50.063,47.957 49.388,48.658L49.223,48.862C44.691,53.495 38.476,56.11 31.995,56.11C18.774,56.11 7.895,45.231 7.895,32.01C7.895,18.789 18.774,7.91 31.995,7.91L32.639,7.91C32.71,7.914 32.78,7.925 32.848,7.942C32.876,7.949 32.904,7.953 32.933,7.954C33.873,7.988 34.811,8.075 35.741,8.216C35.751,8.217 35.76,8.218 35.77,8.219C36.342,8.263 36.79,8.746 36.79,9.32C36.79,9.913 36.314,10.402 35.726,10.424ZM29.523,10.915C29.617,10.786 29.625,10.613 29.543,10.475C29.462,10.338 29.306,10.262 29.148,10.283C18.288,11.696 10.073,21.049 10.073,32C10.073,44.014 19.959,53.9 31.973,53.9C31.982,53.9 31.991,53.9 32.001,53.9C36.716,53.916 41.312,52.396 45.089,49.57C45.217,49.475 45.276,49.312 45.239,49.157C45.201,49.001 45.075,48.883 44.918,48.856C33.406,46.86 24.918,36.774 24.918,25.09C24.918,19.998 26.53,15.035 29.523,10.915ZM54.945,32.212L54.961,32.212C55.566,32.212 56.063,32.71 56.063,33.315L56.062,33.378C55.929,35.73 55.451,38.05 54.644,40.263C54.643,40.265 54.643,40.266 54.642,40.267C54.488,40.704 54.073,40.999 53.609,41C53.007,40.998 52.513,40.502 52.513,39.9C52.513,39.776 52.535,39.652 52.576,39.534C53.311,37.515 53.743,35.398 53.86,33.252C53.893,32.678 54.37,32.221 54.945,32.212ZM51.829,19.32C52.204,19.304 52.561,19.48 52.776,19.786L52.781,19.795C53.983,21.831 54.876,24.035 55.431,26.334C55.451,26.418 55.462,26.504 55.462,26.59C55.462,27.193 54.965,27.69 54.362,27.69L54.359,27.69C53.852,27.69 53.408,27.339 53.289,26.846C53.289,26.846 53.289,26.846 53.289,26.846C52.787,24.759 51.979,22.759 50.891,20.909C50.815,20.757 50.776,20.589 50.776,20.419C50.776,19.833 51.244,19.344 51.829,19.32L51.829,19.32ZM47.592,16.586L47.594,16.19C47.322,16.187 47.061,16.082 46.863,15.897C46.862,15.896 46.862,15.896 46.861,15.895C45.28,14.436 43.492,13.218 41.555,12.281C41.555,12.281 41.555,12.28 41.555,12.28C41.175,12.097 40.933,11.711 40.933,11.289C40.933,10.686 41.43,10.189 42.033,10.189L42.046,10.189C42.209,10.191 42.369,10.228 42.515,10.299C42.515,10.3 42.516,10.3 42.517,10.3C44.642,11.319 46.607,12.644 48.348,14.234C48.572,14.442 48.699,14.734 48.699,15.039C48.699,15.637 48.212,16.131 47.614,16.139L47.616,16.544L47.592,16.586ZM35.745,10.823C35.791,10.694 35.816,10.559 35.768,10.472C35.852,10.52 35.916,10.597 35.948,10.688C35.915,10.662 35.852,10.729 35.786,10.821L35.762,10.823L35.745,10.823Z" style="fill-rule:nonzero;"/>
    </g>
</svg>
