<?xml version="1.0" encoding="UTF-8" standalone="no"?>
<!DOCTYPE svg PUBLIC "-//W3C//DTD SVG 1.1//EN" "http://www.w3.org/Graphics/SVG/1.1/DTD/svg11.dtd">
<svg width="100%" height="100%" viewBox="0 0 431 273" version="1.1" xmlns="http://www.w3.org/2000/svg" xmlns:xlink="http://www.w3.org/1999/xlink" xml:space="preserve" xmlns:serif="http://www.serif.com/" style="fill-rule:evenodd;clip-rule:evenodd;stroke-linecap:round;stroke-linejoin:round;stroke-miterlimit:1.5;">
    <g transform="matrix(1,0,0,1,-4275.52,-1101.73)">
        <g transform="matrix(1.46977,0,0,1,3062.64,0)">
            <g transform="matrix(0.779659,0,0,1.14592,482.005,-149.174)">
                <g transform="matrix(148.433,0,0,148.433,430.005,1207.86)">
                    <rect x="0.094" y="-0.711" width="0.056" height="0.711" style="fill-rule:nonzero;"/>
                </g>
                <g transform="matrix(148.433,0,0,148.433,466.244,1207.86)">
                    <path d="M0.124,-0.528L0.125,-0.444C0.141,-0.473 0.161,-0.496 0.185,-0.513C0.21,-0.53 0.237,-0.538 0.268,-0.538C0.36,-0.538 0.407,-0.477 0.41,-0.354L0.41,-0L0.356,-0L0.356,-0.348C0.356,-0.395 0.347,-0.43 0.331,-0.453C0.315,-0.475 0.289,-0.486 0.254,-0.486C0.226,-0.486 0.201,-0.476 0.178,-0.454C0.155,-0.433 0.138,-0.404 0.126,-0.367L0.126,-0L0.072,-0L0.072,-0.528L0.124,-0.528Z" style="fill-rule:nonzero;"/>
                </g>
                <g transform="matrix(148.433,0,0,148.433,537.706,1207.86)">
                    <path d="M0.101,-0L0.101,-0.479L0.028,-0.479L0.028,-0.528L0.101,-0.528L0.101,-0.589C0.102,-0.643 0.116,-0.685 0.142,-0.715C0.169,-0.745 0.205,-0.76 0.251,-0.76C0.288,-0.76 0.326,-0.751 0.365,-0.731L0.356,-0.68C0.323,-0.697 0.289,-0.706 0.255,-0.706C0.191,-0.706 0.157,-0.667 0.156,-0.589L0.156,-0.528L0.257,-0.528L0.257,-0.479L0.156,-0.479L0.156,-0L0.101,-0ZM0.394,-0L0.339,-0L0.339,-0.528L0.394,-0.528L0.394,-0Z" style="fill-rule:nonzero;"/>
                </g>
                <g transform="matrix(148.433,0,0,148.433,607.936,1207.86)">
                    <path d="M0.124,-0.528L0.125,-0.444C0.141,-0.473 0.161,-0.496 0.185,-0.513C0.21,-0.53 0.237,-0.538 0.268,-0.538C0.36,-0.538 0.407,-0.477 0.41,-0.354L0.41,-0L0.356,-0L0.356,-0.348C0.356,-0.395 0.347,-0.43 0.331,-0.453C0.315,-0.475 0.289,-0.486 0.254,-0.486C0.226,-0.486 0.201,-0.476 0.178,-0.454C0.155,-0.433 0.138,-0.404 0.126,-0.367L0.126,-0L0.072,-0L0.072,-0.528L0.124,-0.528Z" style="fill-rule:nonzero;"/>
                </g>
                <g transform="matrix(148.433,0,0,148.433,679.398,1207.86)">
                    <path d="M0.133,-0L0.078,-0L0.078,-0.528L0.133,-0.528L0.133,-0ZM0.07,-0.681C0.07,-0.692 0.073,-0.701 0.08,-0.709C0.086,-0.717 0.095,-0.721 0.106,-0.721C0.117,-0.721 0.126,-0.717 0.133,-0.709C0.139,-0.701 0.142,-0.692 0.142,-0.681C0.142,-0.67 0.139,-0.66 0.133,-0.653C0.126,-0.645 0.117,-0.641 0.106,-0.641C0.095,-0.641 0.086,-0.645 0.08,-0.653C0.073,-0.66 0.07,-0.67 0.07,-0.681Z" style="fill-rule:nonzero;"/>
                </g>
                <g transform="matrix(148.433,0,0,148.433,710.636,1207.86)">
                    <path d="M0.154,-0.663L0.154,-0.528L0.244,-0.528L0.244,-0.479L0.154,-0.479L0.154,-0.128C0.154,-0.099 0.158,-0.078 0.167,-0.064C0.175,-0.05 0.19,-0.042 0.21,-0.042C0.219,-0.042 0.232,-0.044 0.249,-0.047L0.25,0.001C0.238,0.007 0.22,0.01 0.197,0.01C0.134,0.01 0.101,-0.034 0.1,-0.121L0.1,-0.479L0.018,-0.479L0.018,-0.528L0.1,-0.528L0.1,-0.663L0.154,-0.663Z" style="fill-rule:nonzero;"/>
                </g>
                <g transform="matrix(148.433,0,0,148.433,753.687,1207.86)">
                    <path d="M0.247,0.01C0.184,0.01 0.136,-0.011 0.101,-0.051C0.065,-0.092 0.048,-0.15 0.047,-0.225L0.047,-0.29C0.047,-0.367 0.064,-0.428 0.098,-0.472C0.132,-0.516 0.178,-0.538 0.237,-0.538C0.295,-0.538 0.338,-0.519 0.368,-0.482C0.399,-0.444 0.414,-0.387 0.415,-0.31L0.415,-0.259L0.101,-0.259L0.101,-0.229C0.101,-0.169 0.114,-0.122 0.139,-0.089C0.165,-0.056 0.202,-0.04 0.249,-0.04C0.301,-0.04 0.343,-0.059 0.375,-0.097L0.404,-0.061C0.369,-0.014 0.317,0.01 0.247,0.01ZM0.237,-0.487C0.195,-0.487 0.162,-0.472 0.139,-0.442C0.116,-0.412 0.103,-0.368 0.101,-0.31L0.36,-0.31L0.36,-0.324C0.358,-0.433 0.317,-0.487 0.237,-0.487Z" style="fill-rule:nonzero;"/>
                </g>
            </g>
        </g>
        <g transform="matrix(1.46977,0,0,1,3062.64,0)">
            <g transform="matrix(0.43594,0,0,0.64073,440.549,394.118)">
                <circle cx="896.514" cy="1118.51" r="12.947" style="stroke:black;stroke-width:2.34px;"/>
            </g>
        </g>
        <g transform="matrix(1.46977,0,0,1,3062.64,0)">
            <g transform="matrix(0.43594,0,0,0.64073,440.549,544.323)">
                <circle cx="896.514" cy="1118.51" r="12.947" style="stroke:black;stroke-width:2.34px;"/>
            </g>
        </g>
        <g transform="matrix(1.46977,0,0,1,3062.64,0)">
            <g transform="matrix(0.990395,0,0,1.45565,-3173.59,-598.514)">
                <path d="M4185.42,1332.01C4184.58,1339.17 4181.94,1344.7 4177.49,1348.59C4173.04,1352.48 4167.12,1354.42 4159.74,1354.42C4151.74,1354.42 4145.34,1351.56 4140.51,1345.82C4135.69,1340.08 4133.28,1332.41 4133.28,1322.8L4133.28,1316.29C4133.28,1309.99 4134.4,1304.46 4136.65,1299.68C4138.9,1294.91 4142.09,1291.24 4146.21,1288.68C4150.34,1286.12 4155.11,1284.85 4160.54,1284.85C4167.73,1284.85 4173.5,1286.85 4177.84,1290.87C4182.18,1294.88 4184.7,1300.44 4185.42,1307.54L4176.44,1307.54C4175.67,1302.15 4173.98,1298.24 4171.4,1295.82C4168.81,1293.4 4165.19,1292.19 4160.54,1292.19C4154.83,1292.19 4150.36,1294.3 4147.12,1298.52C4143.88,1302.74 4142.26,1308.74 4142.26,1316.52L4142.26,1323.08C4142.26,1330.43 4143.79,1336.27 4146.86,1340.61C4149.93,1344.95 4154.23,1347.12 4159.74,1347.12C4164.71,1347.12 4168.51,1346 4171.16,1343.75C4173.81,1341.5 4175.57,1337.59 4176.44,1332.01L4185.42,1332.01Z" style="fill-rule:nonzero;stroke:black;stroke-width:1.72px;stroke-linecap:butt;stroke-miterlimit:2;"/>
                <path d="M4220.58,1310.89C4219.28,1310.67 4217.87,1310.57 4216.35,1310.57C4210.7,1310.57 4206.88,1312.97 4204.86,1317.78L4204.86,1353.49L4196.26,1353.49L4196.26,1303.17L4204.63,1303.17L4204.77,1308.99C4207.59,1304.49 4211.59,1302.24 4216.77,1302.24C4218.44,1302.24 4219.71,1302.46 4220.58,1302.89L4220.58,1310.89Z" style="fill-rule:nonzero;stroke:black;stroke-width:1.72px;stroke-linecap:butt;stroke-miterlimit:2;"/>
                <path d="M4257.69,1353.49C4257.2,1352.5 4256.8,1350.74 4256.48,1348.19C4252.48,1352.35 4247.71,1354.42 4242.16,1354.42C4237.2,1354.42 4233.13,1353.02 4229.95,1350.21C4226.77,1347.41 4225.18,1343.85 4225.18,1339.54C4225.18,1334.3 4227.18,1330.23 4231.16,1327.33C4235.15,1324.43 4240.75,1322.98 4247.97,1322.98L4256.35,1322.98L4256.35,1319.03C4256.35,1316.02 4255.45,1313.63 4253.65,1311.85C4251.85,1310.06 4249.2,1309.17 4245.69,1309.17C4242.62,1309.17 4240.05,1309.95 4237.97,1311.5C4235.9,1313.05 4234.86,1314.92 4234.86,1317.12L4226.21,1317.12C4226.21,1314.61 4227.1,1312.19 4228.88,1309.85C4230.66,1307.5 4233.08,1305.65 4236.14,1304.29C4239.19,1302.92 4242.55,1302.24 4246.21,1302.24C4252.01,1302.24 4256.55,1303.69 4259.83,1306.59C4263.12,1309.49 4264.83,1313.48 4264.95,1318.57L4264.95,1341.73C4264.95,1346.35 4265.54,1350.02 4266.72,1352.75L4266.72,1353.49L4257.69,1353.49ZM4243.42,1346.94C4246.11,1346.94 4248.67,1346.24 4251.09,1344.84C4253.51,1343.45 4255.26,1341.63 4256.35,1339.4L4256.35,1329.08L4249.6,1329.08C4239.06,1329.08 4233.79,1332.16 4233.79,1338.33C4233.79,1341.03 4234.69,1343.14 4236.49,1344.66C4238.28,1346.18 4240.59,1346.94 4243.42,1346.94Z" style="fill-rule:nonzero;stroke:black;stroke-width:1.72px;stroke-linecap:butt;stroke-miterlimit:2;"/>
                <path d="M4282.67,1353.49L4282.67,1309.82L4274.72,1309.82L4274.72,1303.17L4282.67,1303.17L4282.67,1298.01C4282.67,1292.61 4284.11,1288.44 4287,1285.5C4289.88,1282.55 4293.96,1281.08 4299.23,1281.08C4301.21,1281.08 4303.18,1281.34 4305.13,1281.87L4304.67,1288.85C4303.21,1288.57 4301.66,1288.43 4300.02,1288.43C4297.23,1288.43 4295.07,1289.24 4293.55,1290.87C4292.03,1292.5 4291.27,1294.83 4291.27,1297.87L4291.27,1303.17L4302.02,1303.17L4302.02,1309.82L4291.27,1309.82L4291.27,1353.49L4282.67,1353.49Z" style="fill-rule:nonzero;stroke:black;stroke-width:1.72px;stroke-linecap:butt;stroke-miterlimit:2;"/>
                <path d="M4323.18,1290.99L4323.18,1303.17L4332.57,1303.17L4332.57,1309.82L4323.18,1309.82L4323.18,1341.03C4323.18,1343.05 4323.6,1344.56 4324.44,1345.56C4325.27,1346.57 4326.7,1347.08 4328.72,1347.08C4329.71,1347.08 4331.07,1346.89 4332.81,1346.52L4332.81,1353.49C4330.54,1354.11 4328.34,1354.42 4326.2,1354.42C4322.36,1354.42 4319.46,1353.26 4317.51,1350.94C4315.55,1348.61 4314.58,1345.31 4314.58,1341.03L4314.58,1309.82L4305.41,1309.82L4305.41,1303.17L4314.58,1303.17L4314.58,1290.99L4323.18,1290.99Z" style="fill-rule:nonzero;stroke:black;stroke-width:1.72px;stroke-linecap:butt;stroke-miterlimit:2;"/>
            </g>
        </g>
        <g transform="matrix(1.46977,0,0,1,3062.64,0)">
            <g transform="matrix(0.675078,0,0,1,-2061.07,0)">
                <rect x="4279.86" y="1229.4" width="9.502" height="31.582"/>
            </g>
        </g>
    </g>
</svg>
