<?xml version="1.0" encoding="UTF-8" standalone="no"?>
<!DOCTYPE svg PUBLIC "-//W3C//DTD SVG 1.1//EN" "http://www.w3.org/Graphics/SVG/1.1/DTD/svg11.dtd">
<svg width="100%" height="100%" viewBox="0 0 50 50" version="1.1" xmlns="http://www.w3.org/2000/svg" xmlns:xlink="http://www.w3.org/1999/xlink" xml:space="preserve" xmlns:serif="http://www.serif.com/" style="fill-rule:evenodd;clip-rule:evenodd;stroke-linejoin:round;stroke-miterlimit:2;">
    <path d="M21,3C11.621,3 4,10.621 4,20C4,29.379 11.621,37 21,37C24.711,37 28.141,35.805 30.938,33.781L44.094,46.906L46.906,44.094L33.906,31.063C36.461,28.086 38,24.223 38,20C38,10.621 30.379,3 21,3ZM21,5C29.297,5 36,11.703 36,20C36,28.297 29.297,35 21,35C12.703,35 6,28.297 6,20C6,11.703 12.703,5 21,5Z" style="fill:rgb(159,159,159);fill-rule:nonzero;"/>
</svg>
