<?xml version="1.0" encoding="UTF-8" standalone="no"?>
<!DOCTYPE svg PUBLIC "-//W3C//DTD SVG 1.1//EN" "http://www.w3.org/Graphics/SVG/1.1/DTD/svg11.dtd">
<svg width="100%" height="100%" viewBox="0 0 44 45" version="1.1" xmlns="http://www.w3.org/2000/svg" xmlns:xlink="http://www.w3.org/1999/xlink" xml:space="preserve" xmlns:serif="http://www.serif.com/" style="fill-rule:evenodd;clip-rule:evenodd;stroke-linejoin:round;stroke-miterlimit:2;">
    <g transform="matrix(1,0,0,1,0.18125,-2.85)">
        <path d="M24.156,3C23.852,3 23.551,3.063 23.25,3.156C22.645,3.348 22.066,3.707 21.563,4.219L9.813,15.969L3,15.969C1.332,15.969 -0.031,17.332 -0.031,19L-0.031,31C-0.031,32.668 1.332,34.031 3,34.031L9.813,34.031L21.531,45.688C22.648,46.809 24.082,47.301 25.25,46.75C26.426,46.195 27,44.859 27,43.313L27,6.313C27,4.813 26.234,3.566 25.063,3.156C24.77,3.055 24.461,3 24.156,3ZM24.188,5C24.289,5 24.367,5.008 24.438,5.031C24.723,5.129 25,5.383 25,6.313L25,43.313C25,44.379 24.648,44.855 24.406,44.969C24.164,45.082 23.676,45.094 22.906,44.313L10.313,31.719C10.293,31.707 10.27,31.695 10.25,31.688C10.324,31.754 10,31.121 10,30.75L10,19.25C10,18.879 10.336,18.238 10.25,18.313C10.273,18.293 10.293,18.273 10.313,18.25L22.969,5.625C23.438,5.152 23.879,5.004 24.188,5ZM34.719,12.125C34.273,12.18 33.918,12.527 33.855,12.973C33.789,13.414 34.027,13.848 34.438,14.031C38.34,16.137 41,20.246 41,25C41,29.738 38.352,33.859 34.469,35.969C33.984,36.234 33.809,36.844 34.078,37.328C34.344,37.813 34.953,37.988 35.438,37.719C39.945,35.27 43,30.484 43,25C43,19.5 39.938,14.695 35.406,12.25C35.227,12.148 35.02,12.105 34.813,12.125L34.719,12.125ZM3,18.031L8.188,18.031C8.059,18.414 8,18.832 8,19.25L8,30.75C8,31.168 8.063,31.582 8.188,31.969L3,31.969C2.461,31.969 2.031,31.539 2.031,31L2.031,19C2.031,18.461 2.461,18.031 3,18.031ZM30.531,18.406C30.047,18.465 29.68,18.863 29.656,19.352C29.633,19.836 29.961,20.27 30.438,20.375C32.484,20.91 34,22.777 34,25C34,27.223 32.484,29.09 30.438,29.625C29.902,29.762 29.582,30.309 29.719,30.844C29.855,31.379 30.402,31.699 30.938,31.563C33.848,30.801 36,28.137 36,25C36,21.863 33.848,19.199 30.938,18.438C30.805,18.398 30.668,18.391 30.531,18.406Z" style="fill-rule:nonzero;stroke:black;stroke-width:0.3px;"/>
    </g>
</svg>
