<?xml version="1.0" encoding="UTF-8" standalone="no"?>
<!DOCTYPE svg PUBLIC "-//W3C//DTD SVG 1.1//EN" "http://www.w3.org/Graphics/SVG/1.1/DTD/svg11.dtd">
<svg width="100%" height="100%" viewBox="0 0 49 57" version="1.1" xmlns="http://www.w3.org/2000/svg" xmlns:xlink="http://www.w3.org/1999/xlink" xml:space="preserve" xmlns:serif="http://www.serif.com/" style="fill-rule:evenodd;clip-rule:evenodd;stroke-linejoin:round;stroke-miterlimit:2;">
    <g transform="matrix(1,0,0,1,-9.825,-1.825)">
        <path d="M30,2C29,2 28.102,2.5 27.5,3.301L24.5,8L13,8C11.301,8 10,9.301 10,11L10,17C10,18.699 11.301,20 13,20L13.098,20L16.598,53.5C16.898,56.102 19,58 21.598,58L46.402,58C49,58 51.102,56.102 51.402,53.5L54.902,20L55,20C56.699,20 58,18.699 58,17L58,11C58,9.301 56.699,8 55,8L43.5,8L40.402,3.301C39.902,2.5 38.902,2 37.902,2L30,2ZM30.098,4L38,4C38.301,4 38.602,4.199 38.801,4.398L41.098,8L26.902,8L29.199,4.398C29.398,4.199 29.699,4 30.098,4ZM13,10L55,10C55.602,10 56,10.398 56,11L56,17C56,17.602 55.602,18 55,18L13,18C12.398,18 12,17.602 12,17L12,11C12,10.398 12.398,10 13,10ZM15.098,20L52.902,20L49.402,53.301C49.199,54.801 48,56 46.402,56L21.598,56C20.098,56 18.801,54.801 18.598,53.301L15.098,20ZM34,25C33.398,25 33,25.398 33,26L33,46C33,46.602 33.398,47 34,47C34.602,47 35,46.602 35,46L35,26C35,25.398 34.602,25 34,25ZM25,25.098C24.398,25.098 24,25.598 24.098,26.098L25.098,46.098C25,46.598 25.5,47 26,47C26.602,47 27,46.5 27,46L26,26C26,25.398 25.5,25 25,25.098ZM43.098,25.098C42.5,25.098 42.098,25.5 42.098,26L41.098,46C41,46.5 41.398,47 42,47C42.602,47 43,46.598 43,46.098L44,26.098C44,25.5 43.598,25.098 43.098,25.098Z" style="fill-rule:nonzero;stroke:black;stroke-width:0.35px;"/>
    </g>
</svg>
